<svg width="273" height="41" xmlns="http://www.w3.org/2000/svg" xmlns:xlink="http://www.w3.org/1999/xlink" xml:space="preserve" overflow="hidden"><g transform="translate(-643 -27)"><path d="M11.7015 0.751475 0.644121 0.751475C0.322061 0.751475 0 0.966182 0 1.28824L0 39.3987C0 39.7208 0.322061 40.0429 0.644121 40.0429L11.7015 40.0429C12.0236 40.0429 12.3457 39.7208 12.3457 39.3987L12.3457 1.28824C12.2383 0.966182 12.0236 0.751475 11.7015 0.751475Z" fill="#9B0008" transform="matrix(1 0 0 1.00386 643 27.0242)"/><path d="M52.7106 21.3633C51.4223 19.1089 49.2753 17.606 47.0208 16.3177 44.1223 14.7074 34.2458 11.4868 33.8164 8.48093 33.3869 5.47503 36.6075 4.18679 40.4723 4.18679 45.0885 4.18679 46.6988 7.72945 46.6988 11.9162 46.6988 12.1309 46.6988 12.453 46.6988 12.6677 46.6988 13.0971 47.0208 13.2045 47.4503 13.2045 47.8797 13.2045 52.2812 12.8824 52.4959 12.8824 52.7106 12.8824 52.8179 12.453 52.8179 12.1309 52.8179 7.08533 50.5635 2.46913 45.6252 0.751475 43.9076 0.214707 42.0826 0 40.3649 0 35.7487 0 33.2796 0.966182 31.9913 2.25442L31.9913 1.28824C31.9913 0.966182 31.6693 0.644121 31.3472 0.644121L20.2898 0.644121C19.9678 0.644121 19.6457 0.966182 19.6457 1.28824L19.6457 39.3987C19.6457 39.7208 19.9678 40.0429 20.2898 40.0429L31.3472 40.0429C31.6693 40.0429 31.9913 39.7208 31.9913 39.3987L31.9913 39.184C33.0649 39.7208 35.3193 40.7943 38.3252 40.7943 43.2635 40.7943 48.8459 39.184 52.0665 35.3193 55.1797 31.5619 55.1797 25.5501 52.7106 21.3633ZM44.4444 33.9237C43.4782 35.8561 40.687 36.0708 38.7546 36.0708 36.0708 36.1781 33.4943 34.9972 31.9913 32.7428L31.9913 23.081C34.9972 24.3692 41.3311 27.3751 43.3708 29.5222 44.2297 30.4884 45.0885 32.6355 44.4444 33.9237Z" fill="#9B0008" transform="matrix(1 0 0 1.00386 643 27.0242)"/><path d="M22.5442 20.3972C22.5442 23.836 19.7565 26.6237 16.3177 26.6237 12.8789 26.6237 10.0912 23.836 10.0912 20.3972 10.0912 16.9584 12.8789 14.1707 16.3177 14.1707 19.7565 14.1707 22.5442 16.9584 22.5442 20.3972Z" transform="matrix(1 0 0 1.00386 643 27.0242)"/><path d="M64.6268 10.5206 68.921 10.5206 68.921 19.9678 76.7578 19.9678 76.7578 10.5206 81.0519 10.5206 81.0519 33.1722 76.7578 33.1722 76.7578 22.5442 68.921 22.5442 68.921 33.0649 64.6268 33.0649 64.6268 10.5206Z" transform="matrix(1 0 0 1.00386 643 27.0242)"/><path d="M85.024 21.7928C85.024 14.8148 87.8152 10.0912 94.4711 10.0912 101.127 10.0912 103.918 14.8148 103.918 21.7928 103.918 28.7707 101.127 33.4943 94.4711 33.4943 87.8152 33.4943 85.024 28.7707 85.024 21.7928ZM94.4711 31.3472C98.0138 31.3472 99.4094 27.5899 99.4094 21.7928 99.4094 16.103 98.0138 12.2383 94.4711 12.2383 90.9284 12.2383 89.5328 15.9957 89.5328 21.7928 89.5328 27.4825 90.9284 31.3472 94.4711 31.3472Z" transform="matrix(1 0 0 1.00386 643 27.0242)"/><path d="M119.914 14.278C119.162 13.8486 116.264 12.7751 113.687 12.7751 111.862 12.7751 110.574 13.7413 110.574 15.1368 110.574 19.5383 121.632 19.8604 121.632 26.8384 121.632 31.7766 117.982 33.6017 113.043 33.6017 110.359 33.6017 107.676 32.8502 106.924 32.6355L106.924 28.6634C108.642 29.7369 111.218 31.1325 113.795 31.1325 115.19 31.1325 117.337 30.4884 117.337 28.3413 117.337 23.1884 106.602 23.2957 106.602 16.2104 106.602 12.5604 109.393 10.4133 114.224 10.4133 116.586 10.4133 119.055 10.8427 119.914 11.0574L119.914 14.278Z" transform="matrix(1 0 0 1.00386 643 27.0242)"/><path d="M124.852 10.5206 129.146 10.5206 129.146 19.9678 136.983 19.9678 136.983 10.5206 141.277 10.5206 141.277 33.1722 136.983 33.1722 136.983 22.5442 129.146 22.5442 129.146 33.0649 124.852 33.0649 124.852 10.5206Z" transform="matrix(1 0 0 1.00386 643 27.0242)"/><path d="M146.215 10.5206 150.51 10.5206 150.51 33.1722 146.215 33.1722 146.215 10.5206Z" transform="matrix(1 0 0 1.00386 643 27.0242)"/><path d="M155.341 10.5206 160.064 10.5206 168.867 27.3751 168.974 27.3751 168.974 10.5206 172.517 10.5206 172.517 33.1722 168.223 33.1722 158.883 15.4589 158.883 15.4589 158.883 33.0649 155.341 33.0649 155.341 10.5206Z" transform="matrix(1 0 0 1.00386 643 27.0242)"/><path d="M190.016 13.0971 184.541 13.0971 184.541 10.5206 199.785 10.5206 199.785 13.0971 194.31 13.0971 194.31 33.1722 190.016 33.1722 190.016 13.0971Z" transform="matrix(1 0 0 1.00386 643 27.0242)"/><path d="M212.56 32.4208C210.735 33.1722 209.769 33.4943 207.514 33.4943 203.435 33.4943 199.57 31.1325 199.57 24.584 199.57 20.2898 201.395 17.1766 206.548 17.1766 210.842 17.1766 212.882 19.431 212.882 23.081L212.882 23.6178 203.542 23.6178C203.542 26.3016 205.045 31.4546 209.554 31.4546 210.628 31.4546 211.701 31.1325 212.56 30.8105L212.56 32.4208ZM209.017 22.0075C209.017 20.9339 208.588 18.6795 206.441 18.6795 204.186 18.6795 203.65 21.256 203.542 22.0075L209.017 22.0075Z" transform="matrix(1 0 0 1.00386 643 27.0242)"/><path d="M219.109 25.0134 213.956 17.4986 218.572 17.4986 221.47 21.9001 224.476 17.4986 228.556 17.4986 223.295 24.7987 229.092 33.0649 224.476 33.0649 220.934 27.8046 217.284 33.0649 213.204 33.0649 219.109 25.0134Z" transform="matrix(1 0 0 1.00386 643 27.0242)"/><path d="M240.472 33.2796C239.506 33.3869 238.647 33.4943 237.681 33.4943 234.567 33.4943 232.635 32.7428 232.635 29.2002L232.635 19.431 229.737 19.431 229.737 17.4986 232.635 17.4986 232.635 13.8486 236.607 11.4868 236.607 17.606 241.009 17.606 241.009 19.5383 236.607 19.5383 236.607 28.7707C236.607 30.8105 237.251 31.3472 238.647 31.3472 239.184 31.3472 239.828 31.3472 240.472 31.1325L240.472 33.2796Z" transform="matrix(1 0 0 1.00386 643 27.0242)"/><path d="M243.585 10.5206 247.557 10.5206 247.557 14.1707 243.585 14.1707 243.585 10.5206ZM243.585 17.4986 247.557 17.4986 247.557 33.1722 243.585 33.1722 243.585 17.4986Z" transform="matrix(1 0 0 1.00386 643 27.0242)"/><path d="M252.173 10.5206 256.146 10.5206 256.146 33.1722 252.173 33.1722 252.173 10.5206Z" transform="matrix(1 0 0 1.00386 643 27.0242)"/><path d="M272.678 32.4208C270.853 33.1722 269.887 33.4943 267.632 33.4943 263.553 33.4943 259.688 31.1325 259.688 24.584 259.688 20.2898 261.513 17.1766 266.666 17.1766 270.96 17.1766 273 19.431 273 23.081L273 23.6178 263.66 23.6178C263.66 26.3016 265.163 31.4546 269.672 31.4546 270.746 31.4546 271.819 31.1325 272.678 30.8105L272.678 32.4208ZM269.135 22.0075C269.135 20.9339 268.706 18.6795 266.559 18.6795 264.304 18.6795 263.768 21.256 263.66 22.0075L269.135 22.0075Z" transform="matrix(1 0 0 1.00386 643 27.0242)"/></g></svg>